<svg xmlns="http://www.w3.org/2000/svg" viewBox="0 0 33.25 67.2" width="33.25" height="67.2"><g transform="translate(0, 53.760000000000005)"><path d="M156 991Q153 1011 149 1033Q149 1024 152 1047.0Q155 1070 160 1126Q168 1137 171.5 1145.5Q175 1154 178 1161Q169 1172 164.5 1179.5Q160 1187 160 1192Q168 1253 175 1308Q176 1323 192.5 1342.0Q209 1361 238 1383Q261 1402 283 1415.0Q305 1428 325 1436Q352 1445 357 1451.0Q362 1457 368 1457Q384 1457 392.5 1441.0Q401 1425 401 1393Q401 1376 392.5 1346.0Q384 1316 384 1302Q384 1296 385.5 1256.0Q387 1216 390 1141Q391 1087 405.5 1026.0Q420 965 443 899Q474 813 510 770.5Q546 728 589 728Q623 728 679 772.0Q735 816 811 904Q869 972 914.5 1031.0Q960 1090 988 1139Q1014 1183 1049 1218.0Q1084 1253 1129 1282Q1143 1290 1152 1295.0Q1161 1300 1166 1300Q1184 1300 1193.5 1273.0Q1203 1246 1203 1193Q1197 1144 1193 1096Q1184 1021 1166.5 940.0Q1149 859 1121 772Q1107 728 1097 695.0Q1087 662 1083 639Q1081 626 1077.5 606.5Q1074 587 1070 561Q1060 536 1048 511Q1038 491 1031.5 463.0Q1025 435 1020 398Q1020 391 1019 380.0Q1018 369 1017 357Q994 255 970 159Q968 150 961 136Q948 132 931.5 119.0Q915 106 897 83Q879 63 867 53.5Q855 44 849 44Q841 44 836 49.0Q831 54 831 66Q832 74 834 79Q848 113 858.5 177.0Q869 241 878 335Q879 355 894 443.0Q909 531 938 687Q942 712 948.5 748.5Q955 785 965 832Q972 856 976.5 873.5Q981 891 981 899Q981 909 977.5 913.5Q974 918 967 918Q961 918 945 902.5Q929 887 905 856Q891 839 876.5 820.0Q862 801 846 783Q819 755 796 730L722 656Q712 650 697.5 641.0Q683 632 663 620Q644 590 602.5 568.5Q561 547 526 547Q484 547 445.5 573.5Q407 600 371 655Q355 682 339.5 709.0Q324 736 306 763L301 762Q296 756 282.5 681.0Q269 606 248 461Q225 312 213 227.0Q201 142 201 117Q199 83 188.5 64.5Q178 46 156 43Q145 42 125 37.5Q105 33 77 26Q72 27 68 29.5Q64 32 64 37L70 74L60 112Q66 143 72 172Q76 232 79 285Q80 296 86.5 322.0Q93 348 93 361Q93 368 90 381.5Q87 395 87 402Q87 457 104.5 565.0Q122 673 122 729Q119 752 115 775Q120 811 131 865.0Q142 919 156 991Z" fill="#111827" transform="scale(0.02734375, -0.02734375)"/></g></svg>